#!OML:ASF Y:\EmotionMaleHayes\Project 1\Capture day 1\Session 1\Male1.ASF
:FULLY-SPECIFIED
:DEGREES
1436
root -11.3728 16.387 17.7015 878.093 -75.8225 199.821
lowerback 6.24998 4.01821 7.48345
upperback 2.28966 5.71422 1.83201
thorax -0.570506 2.84159 -2.62529
lowerneck -16.4279 -9.96618 -5.34455
upperneck 27.8446 -18.1552 12.7465
head 14.0386 -7.28834 2.58256
rclavicle 3.77939e-014 4.21423e-014
rhumerus -9.62728 16.5272 -76.5683
rradius 59.3342
rwrist -9.25551
rhand -12.7234 -31.76
rfingers 7.12502
rthumb 13.3598 -61.3117
lclavicle 3.77939e-014 4.21423e-014
lhumerus -54.4237 7.94095 77.4987
lradius 20.0575
lwrist -30.8578
lhand 4.49983 -23.4507
lfingers 7.12502
lthumb 29.8928 4.15595
rfemur 21.5533 3.14605 32.1017
rtibia 9.66287
rfoot -25.1856 9.08311
rtoes 23.1781
lfemur -21.1521 -3.74906 1.63815
ltibia 5.13747
lfoot -9.89946 3.24905
ltoes -18.3084
1437
root -11.5625 16.3431 17.703 879.774 -75.4411 198.104
lowerback 6.59315 4.04592 7.02789
upperback 2.007 5.78053 1.70782
thorax -1.08268 2.85433 -2.55147
lowerneck -16.3095 -9.93295 -5.28596
upperneck 28.0795 -18.1108 12.5132
head 14.0709 -7.29396 2.49957
rclavicle -7.20594e-016 3.97569e-015
rhumerus -10.1957 16.3854 -76.7663
rradius 59.5686
rwrist -8.96988
rhand -13.0942 -30.6913
rfingers 7.12502
rthumb 13.0023 -60.2662
lclavicle -7.20594e-016 3.97569e-015
lhumerus -54.736 7.56018 77.4274
lradius 20.2257
lwrist -31.1616
lhand 5.98099 -22.802
lfingers 7.12502
lthumb 31.3052 4.54084
rfemur 22.1949 3.72668 31.8502
rtibia 9.95727
rfoot -25.4084 8.88048
rtoes 22.5016
lfemur -21.2485 -3.64317 1.19328
ltibia 5.10398
lfoot -9.70089 2.11536
ltoes -20.442
1438
root -11.7514 16.3009 17.7055 881.172 -75.0003 196.784
lowerback 6.08169 4.10605 6.81771
upperback 2.29146 5.78472 1.56905
thorax -0.509669 2.88199 -2.52139
lowerneck -16.5609 -9.94859 -5.2652
upperneck 27.7752 -18.0832 12.6243
head 14.0027 -7.26062 2.52938
rclavicle 2.00027e-014 6.75868e-015
rhumerus -9.83859 16.156 -76.6951
rradius 59.7294
rwrist -8.66981
rhand -13.6297 -30.5497
rfingers 7.12502
rthumb 12.4862 -60.1567
lclavicle 2.00027e-014 6.75868e-015
lhumerus -53.973 7.49307 77.3792
lradius 20.1494
lwrist -31.8118
lhand 4.4582 -23.1438
lfingers 7.12502
lthumb 29.8531 4.46999
rfemur 22.657 4.49851 31.7835
rtibia 10.4246
rfoot -25.7644 8.68435
rtoes 22.514
lfemur -21.6244 -2.96593 0.657032
ltibia 5.821
lfoot -9.63676 0.825249
ltoes -18.495
1439
root -11.9471 16.2618 17.7111 881.165 -74.468 196.844
lowerback 6.39153 4.08386 6.82248
upperback 1.94522 5.80747 1.62433
thorax -1.04476 2.87009 -2.51287
lowerneck -16.1163 -9.89483 -5.44954
upperneck 27.7432 -17.9934 12.6817
head 13.9083 -7.26851 2.62012
rclavicle -4.08006e-014 -6.36111e-015
rhumerus -10.5938 16.2383 -76.961
rradius 59.9822
rwrist -8.57739
rhand -13.6125 -30.8088
rfingers 7.12502
rthumb 12.5028 -60.4147
lclavicle -4.08006e-014 -6.36111e-015
lhumerus -54.2296 7.26589 77.3277
lradius 20.162
lwrist -32.0791
lhand 4.21787 -23.1243
lfingers 7.12502
lthumb 29.6237 4.53047
rfemur 23.1489 5.21475 32.1386
rtibia 10.9252
rfoot -26.0028 8.50964
rtoes 22.3081
lfemur -21.9291 -2.59787 0.516997
ltibia 6.83267
lfoot -9.85522 -0.0484566
ltoes -19.3581
1440
root -12.152 16.2242 17.72 880.778 -73.9443 197.186
lowerback 6.15224 4.12661 7.18438
upperback 2.03103 5.85662 1.64015
thorax -0.782258 2.90455 -2.67084
lowerneck -16.1433 -9.96188 -5.66451
upperneck 27.8697 -18.0748 12.7023
head 14.0041 -7.31749 2.64468
rclavicle -2.22142e-014 2.38542e-014
rhumerus -10.9321 16.0161 -77.016
rradius 60.1929
rwrist -8.7158
rhand -13.3009 -31.0352
rfingers 7.12502
rthumb 12.8031 -60.6226
lclavicle -2.22142e-014 2.38542e-014
lhumerus -53.7893 7.17917 77.2273
lradius 20.0129
lwrist -32.6137
lhand 4.21105 -23.1911
lfingers 7.12502
lthumb 29.6172 4.4648
rfemur 23.7803 5.75557 32.5137
rtibia 11.4427
rfoot -26.069 8.14499
rtoes 20.8571
lfemur -21.922 -2.9392 0.510503
ltibia 7.82489
lfoot -9.85008 -0.386312
ltoes -13.8972
1441
root -12.3505 16.1868 17.7221 881.77 -73.7769 196.107
lowerback 6.17938 4.07292 6.88152
upperback 2.04996 5.77076 1.51796
thorax -0.804306 2.86291 -2.62877
lowerneck -16.4113 -9.94698 -5.66755
upperneck 28.0559 -18.0846 12.6771
head 14.1421 -7.30349 2.62112
rclavicle 4.17448e-015 1.78906e-014
rhumerus -11.4322 15.8373 -77.195
rradius 60.522
rwrist -8.80593
rhand -13.2737 -30.615
rfingers 7.12502
rthumb 12.8293 -60.2007
lclavicle 4.17448e-015 1.78906e-014
lhumerus -53.3665 7.14437 77.0213
lradius 19.9803
lwrist -33.2333
lhand 4.16872 -23.1762
lfingers 7.12502
lthumb 29.5768 4.48692
rfemur 24.424 6.3167 32.466
rtibia 11.9667
rfoot -26.1812 7.43663
rtoes 19.2974
lfemur -21.9464 -3.56146 -0.13534
ltibia 9.06913
lfoot -9.31973 -0.93605
ltoes -21.8134
1442
root -12.5563 16.1528 17.7266 883.59 -73.6201 194.25
lowerback 5.98621 4.05199 6.40729
upperback 2.0417 5.70505 1.34418
thorax -0.741912 2.83491 -2.52967
lowerneck -16.1854 -9.87706 -5.69846
upperneck 27.9049 -17.9612 12.7235
head 14.021 -7.27028 2.67892
rclavicle -5.94366e-014 -3.1408e-014
rhumerus -11.8929 15.5761 -77.4277
rradius 60.6186
rwrist -8.76773
rhand -13.3807 -30.1629
rfingers 7.12502
rthumb 12.7262 -59.7551
lclavicle -5.94366e-014 -3.1408e-014
lhumerus -52.8911 6.84226 77.1404
lradius 19.9682
lwrist -33.28
lhand 4.10716 -22.97
lfingers 7.12502
lthumb 29.518 4.70351
rfemur 24.9706 6.89475 32.081
rtibia 12.5427
rfoot -26.3168 6.99016
rtoes 18.1323
lfemur -22.0314 -4.38885 -1.04517
ltibia 10.5098
lfoot -9.22905 -1.46003
ltoes -19.5864
1443
root -12.7659 16.1222 17.7354 884.618 -73.3411 193.272
lowerback 5.50404 4.0737 6.34934
upperback 2.17472 5.68679 1.20236
thorax -0.328968 2.84316 -2.59527
lowerneck -16.1731 -9.93209 -5.76654
upperneck 27.7791 -17.9999 12.7492
head 13.9788 -7.29599 2.69064
rclavicle -3.47873e-015 -5.96354e-016
rhumerus -11.9718 15.1481 -77.5794
rradius 60.3239
rwrist -8.76164
rhand -13.4494 -29.7763
rfingers 7.12502
rthumb 12.6599 -59.3726
lclavicle -3.47873e-015 -5.96354e-016
lhumerus -51.9805 6.62126 77.2238
lradius 19.7838
lwrist -33.3676
lhand 4.12351 -22.8578
lfingers 7.12502
lthumb 29.5336 4.81288
rfemur 25.3435 7.46446 31.9721
rtibia 13.3286
rfoot -26.2936 6.61353
rtoes 17.0901
lfemur -22.2666 -5.27665 -1.5738
ltibia 12.0975
lfoot -8.54578 -2.38784
ltoes -19.0514
1444
root -12.9747 16.0982 17.7422 885.154 -73.0144 192.742
lowerback 5.68392 4.0808 6.26157
upperback 1.8662 5.7277 1.16433
thorax -0.750191 2.84731 -2.61902
lowerneck -16.4229 -10.0697 -5.79031
upperneck 28.6062 -18.1989 12.1707
head 14.3419 -7.41058 2.42184
rclavicle -2.71714e-014 1.27222e-014
rhumerus -13.202 14.7862 -77.9052
rradius 60.4508
rwrist -8.79478
rhand -13.7557 -29.5197
rfingers 7.12502
rthumb 12.3646 -59.134
lclavicle -2.71714e-014 1.27222e-014
lhumerus -51.7918 6.54833 76.9738
lradius 19.6034
lwrist -33.984
lhand 3.85787 -22.8566
lfingers 7.12502
lthumb 29.28 4.85862
rfemur 25.7159 8.11892 32.1127
rtibia 14.1764
rfoot -26.2849 6.09316
rtoes 15.6758
lfemur -22.2733 -6.4144 -1.78104
ltibia 13.1941
lfoot -7.01262 -3.39988
ltoes -13.7708
